<svg id="Layer_1" data-name="Layer 1" xmlns="http://www.w3.org/2000/svg" viewBox="0 0 527.6 234.13"><defs><style>.cls-1{fill:#d14726;}.cls-2{fill:#fff;}.cls-3{fill:#8691a1;}.cls-4{fill:#0d0c0d;}</style></defs><path class="cls-1" d="M368,151.7a82.43,82.43,0,1,1-82.43-82.43A82.42,82.42,0,0,1,368,151.7"/><path class="cls-1" d="M412.23,58.36A58.36,58.36,0,1,1,353.87,0a58.36,58.36,0,0,1,58.36,58.36"/><path class="cls-2" d="M320.91,94.76V30.23c2.81-2.3,5.35-5,6.55-8.56h8.43V94.76Z"/><path class="cls-2" d="M389.92,36.49v9c0,4.6-1.33,10.55-9.09,11.49,8.16,1.26,9.09,8.67,9.09,12.64V80.35c0,10.24-6.95,15.46-20.59,15.46h-4.15c-13.64,0-20.59-5.22-20.59-15.46V69.6c0-4,.93-11.38,9.09-12.64-7.76-.94-9.09-6.89-9.09-11.49v-9c0-10.23,7-15.45,20.59-15.45h4.15C383,21,389.92,26.26,389.92,36.49Zm-15,1.26c0-4.91-3.34-6.69-6.41-6.69H366c-3.07,0-6.41,1.78-6.41,6.69v7.83c0,4.91,3.34,6.68,6.41,6.68h2.55c3.07,0,6.41-1.77,6.41-6.68Zm0,31c0-4.91-3.34-6.68-6.41-6.68H366c-3.07,0-6.41,1.77-6.41,6.68V79.1c0,4.91,3.34,6.68,6.41,6.68h2.55c3.07,0,6.41-1.77,6.41-6.68Z"/><rect class="cls-3" y="7.63" width="62.68" height="16.18"/><rect class="cls-3" y="43.6" width="62.68" height="16.18"/><rect class="cls-3" y="79.68" width="62.68" height="16.18"/><path class="cls-2" d="M240.83,201.7V118.08c3.63-3,6.92-6.49,8.49-11.09h10.91V201.7Z"/><path class="cls-2" d="M332.81,125.93v56.83c0,14.34-10.91,20-29.1,20h-1.39c-18.18,0-29.1-5.68-29.1-20V125.93c0-14.34,10.92-20,29.1-20h1.39C321.9,105.9,332.81,111.59,332.81,125.93ZM303,119.71c-6.41,0-10.4,1.89-10.4,8.65v52c0,6.77,4,8.66,10.4,8.66s10.39-1.89,10.39-8.66v-52C313.41,121.6,309.43,119.71,303,119.71Z"/><path class="cls-4" d="M401,63.68V23.25h15V63.06c0,13.71,5.39,19.39,14.49,19.39S445,76.77,445,63.06V23.25h14.85V63.68c0,21.24-10.95,33-29.43,33S401,84.92,401,63.68Z"/><path class="cls-4" d="M511.44,95.44,498.91,75.33H485.08V95.44H470V23.25h28.13c17.36,0,28.22,10,28.22,26.19,0,10.83-4.92,18.77-13.37,22.8l14.58,23.2ZM497.33,36.86H485.08V62h12.25c9.19,0,13.83-4.75,13.83-12.59S506.52,36.86,497.33,36.86Z"/><path class="cls-4" d="M108.48,95.44l-11-17-11.33,17H70.41L89.63,67.49,71.06,40H87.31l10.58,16.2L108.75,40h15.42L105.6,67.08l19.31,28.36Z"/><path class="cls-4" d="M125.46,59.34c0-21.76,15-37.33,35.28-37.33,11.24,0,20.61,4.54,26.74,12.79l-9.65,9.9c-4.37-5.57-9.85-8.46-16.34-8.46-12.17,0-20.8,9.49-20.8,23.1s8.63,23.11,20.8,23.11c6.49,0,12-2.89,16.34-8.56l9.65,9.9c-6.13,8.35-15.5,12.89-26.83,12.89C140.5,96.68,125.46,81.11,125.46,59.34Z"/><path class="cls-4" d="M236.68,80H206.51l-5.76,15.47H185.34l29-72.19h14.85l29.06,72.19H242.44Zm-4.74-12.69-10.3-27.64-10.3,27.64Z"/><path class="cls-4" d="M262.76,23.25h15V81.83h32.59V95.44H262.76Z"/></svg>